<svg width="217" height="40" viewBox="0 0 217 40" fill="none" xmlns="http://www.w3.org/2000/svg">
<path d="M18.732 31C17.9622 32.3333 16.0378 32.3333 15.268 31L4.00962 11.5C3.23982 10.1667 4.20207 8.5 5.74167 8.5L28.2583 8.5C29.7979 8.5 30.7602 10.1667 29.9904 11.5L18.732 31Z" fill="#3B82F6"/>
<circle cx="17" cy="17" r="4.08" transform="rotate(-180 17 17)" fill="white"/>
<path d="M50.79 31L45.51 10H49.83L53.52 27.19H53.58L57.84 10H62.46L66.72 27.19H66.78L70.38 10H74.73L69.39 31H64.14L60.12 15.22H60.06L56.04 31H50.79ZM82.593 31.36C81.073 31.36 79.723 31.04 78.543 30.4C77.383 29.76 76.473 28.86 75.813 27.7C75.153 26.54 74.823 25.21 74.823 23.71C74.823 22.15 75.143 20.78 75.783 19.6C76.443 18.4 77.353 17.46 78.513 16.78C79.693 16.1 81.063 15.76 82.623 15.76C84.103 15.76 85.403 16.08 86.523 16.72C87.663 17.36 88.543 18.24 89.163 19.36C89.803 20.46 90.123 21.71 90.123 23.11C90.123 23.31 90.123 23.54 90.123 23.8C90.123 24.04 90.103 24.29 90.063 24.55H77.733V22.06H86.013C85.953 21.14 85.603 20.4 84.963 19.84C84.343 19.28 83.563 19 82.623 19C81.923 19 81.283 19.16 80.703 19.48C80.123 19.78 79.663 20.24 79.323 20.86C78.983 21.48 78.813 22.27 78.813 23.23V24.1C78.813 24.92 78.973 25.63 79.293 26.23C79.613 26.81 80.053 27.26 80.613 27.58C81.193 27.9 81.843 28.06 82.563 28.06C83.303 28.06 83.923 27.9 84.423 27.58C84.923 27.24 85.303 26.81 85.563 26.29H89.703C89.403 27.23 88.923 28.09 88.263 28.87C87.603 29.63 86.793 30.24 85.833 30.7C84.873 31.14 83.793 31.36 82.593 31.36ZM99.3968 31C98.3368 31 97.4068 30.84 96.6068 30.52C95.8268 30.18 95.2168 29.63 94.7768 28.87C94.3368 28.09 94.1168 27.03 94.1168 25.69V19.45H91.5668V16.12H94.1168L94.5668 12.07H98.1668V16.12H102.127V19.45H98.1668V25.75C98.1668 26.43 98.3168 26.91 98.6168 27.19C98.9168 27.45 99.4268 27.58 100.147 27.58H102.037V31H99.3968ZM104.717 31V16.12H108.257L108.617 19.09H108.677C109.057 18.29 109.507 17.65 110.027 17.17C110.567 16.69 111.177 16.34 111.857 16.12C112.537 15.88 113.297 15.76 114.137 15.76V20.05H113.027C112.367 20.05 111.767 20.12 111.227 20.26C110.707 20.4 110.257 20.64 109.877 20.98C109.517 21.3 109.237 21.73 109.037 22.27C108.857 22.81 108.767 23.48 108.767 24.28V31H104.717ZM123.166 31.36C121.746 31.36 120.456 31.03 119.296 30.37C118.136 29.71 117.216 28.79 116.536 27.61C115.876 26.43 115.546 25.08 115.546 23.56C115.546 22.02 115.886 20.67 116.566 19.51C117.246 18.33 118.166 17.41 119.326 16.75C120.486 16.09 121.776 15.76 123.196 15.76C124.636 15.76 125.936 16.09 127.096 16.75C128.256 17.41 129.166 18.33 129.826 19.51C130.506 20.67 130.846 22.02 130.846 23.56C130.846 25.1 130.506 26.46 129.826 27.64C129.146 28.8 128.226 29.71 127.066 30.37C125.926 31.03 124.626 31.36 123.166 31.36ZM123.196 27.91C123.836 27.91 124.416 27.75 124.936 27.43C125.476 27.09 125.906 26.6 126.226 25.96C126.566 25.32 126.736 24.52 126.736 23.56C126.736 22.6 126.566 21.8 126.226 21.16C125.906 20.5 125.486 20.01 124.966 19.69C124.446 19.37 123.866 19.21 123.226 19.21C122.586 19.21 121.996 19.37 121.456 19.69C120.916 20.01 120.486 20.5 120.166 21.16C119.846 21.8 119.686 22.6 119.686 23.56C119.686 24.52 119.846 25.32 120.166 25.96C120.486 26.6 120.906 27.09 121.426 27.43C121.966 27.75 122.556 27.91 123.196 27.91ZM141.071 31.36C139.511 31.36 138.141 31.03 136.961 30.37C135.801 29.69 134.891 28.77 134.231 27.61C133.571 26.43 133.241 25.08 133.241 23.56C133.241 22.04 133.571 20.7 134.231 19.54C134.911 18.36 135.841 17.44 137.021 16.78C138.201 16.1 139.551 15.76 141.071 15.76C142.991 15.76 144.611 16.26 145.931 17.26C147.251 18.26 148.081 19.64 148.421 21.4H144.131C143.971 20.7 143.611 20.16 143.051 19.78C142.491 19.38 141.821 19.18 141.041 19.18C140.341 19.18 139.711 19.36 139.151 19.72C138.611 20.06 138.181 20.56 137.861 21.22C137.541 21.86 137.381 22.64 137.381 23.56C137.381 24.24 137.471 24.85 137.651 25.39C137.831 25.91 138.081 26.36 138.401 26.74C138.741 27.12 139.131 27.41 139.571 27.61C140.031 27.81 140.521 27.91 141.041 27.91C141.561 27.91 142.031 27.83 142.451 27.67C142.871 27.49 143.231 27.24 143.531 26.92C143.831 26.58 144.031 26.18 144.131 25.72H148.421C148.081 27.44 147.251 28.81 145.931 29.83C144.611 30.85 142.991 31.36 141.071 31.36ZM151.329 31V9.61H155.379V31H151.329ZM165.939 31.36C164.519 31.36 163.229 31.03 162.069 30.37C160.909 29.71 159.989 28.79 159.309 27.61C158.649 26.43 158.319 25.08 158.319 23.56C158.319 22.02 158.659 20.67 159.339 19.51C160.019 18.33 160.939 17.41 162.099 16.75C163.259 16.09 164.549 15.76 165.969 15.76C167.409 15.76 168.709 16.09 169.869 16.75C171.029 17.41 171.939 18.33 172.599 19.51C173.279 20.67 173.619 22.02 173.619 23.56C173.619 25.1 173.279 26.46 172.599 27.64C171.919 28.8 170.999 29.71 169.839 30.37C168.699 31.03 167.399 31.36 165.939 31.36ZM165.969 27.91C166.609 27.91 167.189 27.75 167.709 27.43C168.249 27.09 168.679 26.6 168.999 25.96C169.339 25.32 169.509 24.52 169.509 23.56C169.509 22.6 169.339 21.8 168.999 21.16C168.679 20.5 168.259 20.01 167.739 19.69C167.219 19.37 166.639 19.21 165.999 19.21C165.359 19.21 164.769 19.37 164.229 19.69C163.689 20.01 163.259 20.5 162.939 21.16C162.619 21.8 162.459 22.6 162.459 23.56C162.459 24.52 162.619 25.32 162.939 25.96C163.259 26.6 163.679 27.09 164.199 27.43C164.739 27.75 165.329 27.91 165.969 27.91ZM182.074 31.36C180.854 31.36 179.804 31.1 178.924 30.58C178.064 30.06 177.404 29.29 176.944 28.27C176.504 27.23 176.284 25.96 176.284 24.46V16.12H180.304V24.1C180.304 25.34 180.554 26.29 181.054 26.95C181.554 27.61 182.344 27.94 183.424 27.94C184.124 27.94 184.734 27.78 185.254 27.46C185.794 27.12 186.214 26.65 186.514 26.05C186.834 25.43 186.994 24.68 186.994 23.8V16.12H191.044V31H187.504L187.174 28.54H187.144C186.684 29.4 186.024 30.09 185.164 30.61C184.324 31.11 183.294 31.36 182.074 31.36ZM201.056 31.36C199.676 31.36 198.446 31.02 197.366 30.34C196.286 29.66 195.436 28.73 194.816 27.55C194.196 26.37 193.886 25.03 193.886 23.53C193.886 22.05 194.196 20.72 194.816 19.54C195.436 18.36 196.286 17.44 197.366 16.78C198.466 16.1 199.716 15.76 201.116 15.76C202.256 15.76 203.236 15.97 204.056 16.39C204.896 16.81 205.566 17.37 206.066 18.07V9.61H210.116V31H206.606L206.246 28.72H206.186C205.846 29.22 205.436 29.67 204.956 30.07C204.476 30.47 203.916 30.78 203.276 31C202.636 31.24 201.896 31.36 201.056 31.36ZM202.076 27.91C202.896 27.91 203.606 27.72 204.206 27.34C204.826 26.96 205.306 26.45 205.646 25.81C205.986 25.15 206.156 24.4 206.156 23.56C206.156 22.7 205.986 21.95 205.646 21.31C205.306 20.65 204.826 20.14 204.206 19.78C203.586 19.4 202.876 19.21 202.076 19.21C201.296 19.21 200.596 19.4 199.976 19.78C199.356 20.14 198.866 20.65 198.506 21.31C198.166 21.95 197.996 22.69 197.996 23.53C197.996 24.39 198.166 25.15 198.506 25.81C198.846 26.45 199.326 26.96 199.946 27.34C200.566 27.72 201.276 27.91 202.076 27.91Z" fill="#172554"/>
</svg>
